<?xml version="1.0" encoding="UTF-8" standalone="no"?>
<svg
   xmlns:dc="http://purl.org/dc/elements/1.1/"
   xmlns:cc="http://creativecommons.org/ns#"
   xmlns:rdf="http://www.w3.org/1999/02/22-rdf-syntax-ns#"
   xmlns:svg="http://www.w3.org/2000/svg"
   xmlns="http://www.w3.org/2000/svg"
   viewBox="0 0 328.33334 196.66667"
   height="196.66667"
   width="328.33334"
   xml:space="preserve"
   id="svg2"
   version="1.1"><metadata
     id="metadata8"><rdf:RDF><cc:Work
         rdf:about=""><dc:format>image/svg+xml</dc:format><dc:type
           rdf:resource="http://purl.org/dc/dcmitype/StillImage" /></cc:Work></rdf:RDF></metadata><defs
     id="defs6"><linearGradient
       id="linearGradient48"
       spreadMethod="pad"
       gradientTransform="matrix(87.642578,0,0,-87.642578,84.297852,33.586914)"
       gradientUnits="userSpaceOnUse"
       y2="0"
       x2="1"
       y1="0"
       x1="0"><stop
         id="stop24"
         offset="0"
         style="stop-opacity:1;stop-color:#234fa8" /><stop
         id="stop26"
         offset="0.147581"
         style="stop-opacity:1;stop-color:#1969bc" /><stop
         id="stop28"
         offset="0.167989"
         style="stop-opacity:1;stop-color:#1969bc" /><stop
         id="stop30"
         offset="0.209184"
         style="stop-opacity:1;stop-color:#1969bc" /><stop
         id="stop32"
         offset="0.27551"
         style="stop-opacity:1;stop-color:#0a93db" /><stop
         id="stop34"
         offset="0.423469"
         style="stop-opacity:1;stop-color:#70cdf4" /><stop
         id="stop36"
         offset="0.545918"
         style="stop-opacity:1;stop-color:#70cdf4" /><stop
         id="stop38"
         offset="0.633231"
         style="stop-opacity:1;stop-color:#70cdf4" /><stop
         id="stop40"
         offset="0.75"
         style="stop-opacity:1;stop-color:#0a93db" /><stop
         id="stop42"
         offset="0.846939"
         style="stop-opacity:1;stop-color:#0a93db" /><stop
         id="stop44"
         offset="0.918367"
         style="stop-opacity:1;stop-color:#1969bc" /><stop
         id="stop46"
         offset="1"
         style="stop-opacity:1;stop-color:#125596" /></linearGradient><linearGradient
       id="linearGradient88"
       spreadMethod="pad"
       gradientTransform="matrix(-1.9e-6,-44.469727,-44.469727,1.9e-6,193.62012,70.254883)"
       gradientUnits="userSpaceOnUse"
       y2="0"
       x2="1"
       y1="0"
       x1="0"><stop
         id="stop64"
         offset="0"
         style="stop-opacity:1;stop-color:#234fa8" /><stop
         id="stop66"
         offset="0.147581"
         style="stop-opacity:1;stop-color:#1969bc" /><stop
         id="stop68"
         offset="0.167989"
         style="stop-opacity:1;stop-color:#1969bc" /><stop
         id="stop70"
         offset="0.209184"
         style="stop-opacity:1;stop-color:#1969bc" /><stop
         id="stop72"
         offset="0.27551"
         style="stop-opacity:1;stop-color:#0a93db" /><stop
         id="stop74"
         offset="0.423469"
         style="stop-opacity:1;stop-color:#70cdf4" /><stop
         id="stop76"
         offset="0.545918"
         style="stop-opacity:1;stop-color:#70cdf4" /><stop
         id="stop78"
         offset="0.633231"
         style="stop-opacity:1;stop-color:#70cdf4" /><stop
         id="stop80"
         offset="0.75"
         style="stop-opacity:1;stop-color:#0a93db" /><stop
         id="stop82"
         offset="0.846939"
         style="stop-opacity:1;stop-color:#0a93db" /><stop
         id="stop84"
         offset="0.918367"
         style="stop-opacity:1;stop-color:#1969bc" /><stop
         id="stop86"
         offset="1"
         style="stop-opacity:1;stop-color:#125596" /></linearGradient><clipPath
       id="clipPath98"
       clipPathUnits="userSpaceOnUse"><path
         id="path96"
         d="M 0,147.5 H 246.25 V 0 H 0 Z" /></clipPath><radialGradient
       id="radialGradient194"
       spreadMethod="pad"
       gradientTransform="matrix(-5.2596779,9.1100283,9.1100283,5.2596779,196.43262,98.811035)"
       gradientUnits="userSpaceOnUse"
       r="1"
       cy="0"
       cx="0"
       fy="0"
       fx="0"><stop
         id="stop184"
         offset="0"
         style="stop-opacity:1;stop-color:#fffa99" /><stop
         id="stop186"
         offset="0.362245"
         style="stop-opacity:1;stop-color:#fffa99" /><stop
         id="stop188"
         offset="0.807797"
         style="stop-opacity:1;stop-color:#fffee6" /><stop
         id="stop190"
         offset="0.996572"
         style="stop-opacity:1;stop-color:#ffffff" /><stop
         id="stop192"
         offset="1"
         style="stop-opacity:1;stop-color:#ffffff" /></radialGradient><radialGradient
       id="radialGradient226"
       spreadMethod="pad"
       gradientTransform="matrix(8.0803232,-4.6651769,-6.0647302,-10.50442,206.79687,106.6875)"
       gradientUnits="userSpaceOnUse"
       r="1"
       cy="0"
       cx="0"
       fy="0"
       fx="0"><stop
         id="stop210"
         offset="0"
         style="stop-opacity:1;stop-color:#ffffff" /><stop
         id="stop212"
         offset="0.0792013"
         style="stop-opacity:1;stop-color:#ffffff" /><stop
         id="stop214"
         offset="0.196548"
         style="stop-opacity:1;stop-color:#fffdd9" /><stop
         id="stop216"
         offset="0.248525"
         style="stop-opacity:1;stop-color:#fffa99" /><stop
         id="stop218"
         offset="0.433833"
         style="stop-opacity:1;stop-color:#fff873" /><stop
         id="stop220"
         offset="0.790258"
         style="stop-opacity:1;stop-color:#f57e13" /><stop
         id="stop222"
         offset="0.922871"
         style="stop-opacity:1;stop-color:#b13a20" /><stop
         id="stop224"
         offset="1"
         style="stop-opacity:1;stop-color:#732d1a" /></radialGradient><linearGradient
       id="linearGradient258"
       spreadMethod="pad"
       gradientTransform="matrix(7.9921875,0,0,-7.9921875,196.53027,103.16309)"
       gradientUnits="userSpaceOnUse"
       y2="0"
       x2="1"
       y1="0"
       x1="0"><stop
         id="stop242"
         offset="0"
         style="stop-opacity:1;stop-color:#651617" /><stop
         id="stop244"
         offset="0.396265"
         style="stop-opacity:1;stop-color:#651617" /><stop
         id="stop246"
         offset="0.489198"
         style="stop-opacity:1;stop-color:#bf2c23" /><stop
         id="stop248"
         offset="0.592336"
         style="stop-opacity:1;stop-color:#dd4020" /><stop
         id="stop250"
         offset="0.659837"
         style="stop-opacity:1;stop-color:#f7a40f" /><stop
         id="stop252"
         offset="0.805266"
         style="stop-opacity:1;stop-color:#f6d60f" /><stop
         id="stop254"
         offset="0.894531"
         style="stop-opacity:1;stop-color:#fbc057" /><stop
         id="stop256"
         offset="1"
         style="stop-opacity:1;stop-color:#fbc057" /></linearGradient><clipPath
       id="clipPath268"
       clipPathUnits="userSpaceOnUse"><path
         id="path266"
         d="M 0,147.5 H 246.25 V 0 H 0 Z" /></clipPath></defs><g
     transform="matrix(1.3333333,0,0,-1.3333333,0,196.66667)"
     id="g10"><g
       id="g12"><g
         id="g14"><g
           id="g20"><g
             id="g22"><path
               id="path50"
               style="fill:url(#linearGradient48);stroke:none"
               d="m 144.581,38.597 c -8.228,-0.212 -24.793,-3.954 -39.86,-5.769 v 0 C 89.654,31.01 84.95,36.566 84.95,36.566 v 0 c -1.173,0.856 -1.173,-0.426 3.527,-2.99 v 0 c 4.702,-2.566 15.495,-3.209 25.756,-2.566 v 0 c 10.259,0.638 19.762,2.951 25.54,3.528 v 0 c 13.999,1.388 26.183,-3.636 28.32,-4.489 v 0 c 2.135,-0.858 3.847,-1.498 3.847,-1.498 v 0 l -4.488,6.945 c 0,0 -1.39,0.43 -4.275,1.285 v 0 c -2.652,0.787 -9.184,1.842 -16.614,1.842 v 0 c -0.654,0 -1.316,-0.008 -1.982,-0.026" /></g></g></g></g><g
       id="g52"><g
         id="g54"><g
           id="g60"><g
             id="g62"><path
               id="path90"
               style="fill:url(#linearGradient88);stroke:none"
               d="m 219.1,69.064 c 0,0 -15.79,-4.248 -36.627,-25.646 v 0 c -2.342,-2.404 -3.607,-4.17 -4.088,-4.809 v 0 c -0.479,-0.642 -0.524,-0.353 -1.122,0.479 v 0 c -0.651,0.906 -3.859,4.83 -8.014,5.187 v 0 c -4.269,0.366 -5.611,0.104 -5.184,-0.537 v 0 l 0.428,-0.641 v 0.106 c 0,0 8.014,-7.373 9.94,-11.326 v 0 c 0,0 1.951,-3.525 2.43,-4.809 v 0 l 0.484,-1.283 c 0,0 5.044,7.456 9.055,12.424 v 0 c 4.006,4.969 21.478,22.762 27.73,26.452 v 0 c 6.252,3.682 7.773,4.485 8.416,4.884 v 0 c 0.362,0.227 1.028,0.709 0.513,0.71 v 0 c -0.396,0 -1.491,-0.286 -3.961,-1.191" /></g></g></g></g><g
       id="g92"><g
         clip-path="url(#clipPath98)"
         id="g94"><g
           transform="translate(62.9717,61.7441)"
           id="g100"><path
             id="path102"
             style="fill:#141e33;fill-opacity:1;fill-rule:nonzero;stroke:none"
             d="M 0,0 C -1.85,1.572 -4.19,2.271 -7.038,2.26 H -7.09 c -5.6,-0.018 -9.681,-3.531 -10.66,-7.903 l -0.012,-0.043 c -0.899,-4.453 1.575,-7.9 7.125,-7.878 h 0.053 c 3.3,0.015 5.746,0.9 8.063,2.322 l 3.693,-5.606 c -3.584,-2.384 -8.073,-3.693 -13.322,-3.711 h -0.054 c -11.25,-0.043 -16.501,6.18 -14.556,14.84 l 0.006,0.043 c 1.934,8.617 9.983,14.893 21.233,14.932 L -5.47,9.254 C -0.721,9.273 3.528,8.166 6.209,5.639 Z" /></g><g
           transform="translate(82.8408,70.5938)"
           id="g104"><path
             id="path106"
             style="fill:#141e33;fill-opacity:1;fill-rule:nonzero;stroke:none"
             d="m 0,0 -4.844,-21.609 16.502,0.06 -1.615,-7.205 -25.5,-0.092 L -9,-0.031 Z" /></g><g
           transform="translate(127.5947,70.7617)"
           id="g108"><path
             id="path110"
             style="fill:#141e33;fill-opacity:1;fill-rule:nonzero;stroke:none"
             d="m 0,0 -1.57,-7 -15.051,-0.049 -0.875,-3.92 13.051,0.051 -1.569,-6.996 -13.052,-0.049 -0.875,-3.914 15.05,0.055 -1.57,-6.994 -24.051,-0.09 6.457,28.818 z" /></g><g
           transform="translate(147.2178,63.1328)"
           id="g112"><path
             id="path114"
             style="fill:#141e33;fill-opacity:1;fill-rule:nonzero;stroke:none"
             d="M 0,0 -5.945,-9.133 1.857,-9.1 Z m 13.82,-21.039 -9.502,-0.039 -1.086,5.408 -13.502,-0.047 -3.513,-5.426 -9.502,-0.037 20.162,28.869 9.699,0.032 z" /></g><g
           transform="translate(170.9111,46.4512)"
           id="g116"><path
             id="path118"
             style="fill:#141e33;fill-opacity:1;fill-rule:nonzero;stroke:none"
             d="m 0,0 c 1.505,-0.359 3.215,-1.352 3.215,-1.352 l 0.049,0.108 2.859,12.756 6.775,-9.756 c 1.827,1.812 8.485,8.351 11.307,10.346 3.285,2.324 4.568,3.127 4.568,3.127 l 0.582,0.341 2.032,9.015 -8.75,-0.029 L 19.082,8.689 8.137,24.5 0.283,24.469 -5.125,0.338 C -4.148,0.377 -1.929,0.461 0,0" /></g><g
           transform="translate(192.6729,42.1934)"
           id="g120"><path
             id="path122"
             style="fill:#141e33;fill-opacity:1;fill-rule:nonzero;stroke:none"
             d="M 0,0 3.166,0.027 3.963,3.582 Z" /></g><g
           transform="translate(69.085,77.7993)"
           id="g124"><path
             id="path126"
             style="fill:#141e33;fill-opacity:1;fill-rule:nonzero;stroke:none"
             d="m 0,0 -6.724,0.016 -12.186,22.512 -6.396,-22.472 -6.576,0.015 9.376,32.948 6.723,-0.016 12.17,-22.572 6.414,22.531 6.574,-0.018 z m 0.38,36.175 -4.915,-17.279 -9.333,17.309 -11.058,0.024 -0.006,-0.022 -15.412,-0.196 14.349,-3.538 -0.515,-1.812 -11.375,-0.224 10.59,-2.534 -0.597,-2.097 -8.436,0.039 6.406,-1.754 1.44,-0.36 -7.528,-26.449 -0.115,-0.408 13.237,-0.031 4.906,17.235 9.347,-17.261 11.053,-0.026 11.086,38.944 0.117,0.407 z" /></g><g
           transform="translate(79.0557,78.3276)"
           id="g128"><path
             id="path130"
             style="fill:#141e33;fill-opacity:1;fill-rule:nonzero;stroke:none"
             d="M 0,0 9.375,32.945 16.238,32.93 6.859,-0.014 Z M 20.48,36.125 6.957,36.158 -4.127,-2.786 -4.242,-3.198 9.277,-3.227 20.365,35.718 Z" /></g><g
           transform="translate(104.2686,78.1323)"
           id="g132"><path
             id="path134"
             style="fill:#141e33;fill-opacity:1;fill-rule:nonzero;stroke:none"
             d="m 0,0 7.6,26.704 0.119,0.407 -11.098,0.025 1.66,5.835 29.053,-0.065 -1.662,-5.834 -11.1,0.024 L 6.855,-0.016 Z M 31.576,36.102 -4.137,36.185 -7.621,23.942 3.473,23.916 -4.244,-3.195 9.275,-3.224 l 7.717,27.107 11.1,-0.025 z" /></g><g
           transform="translate(152.5928,102.5229)"
           id="g136"><path
             id="path138"
             style="fill:#141e33;fill-opacity:1;fill-rule:nonzero;stroke:none"
             d="M 0,0 C 2.418,-0.002 2.99,-0.511 3.107,-0.668 3.27,-0.884 3.262,-1.387 3.086,-2.01 L 3.061,-2.096 C 2.416,-4.351 0.996,-5.15 -2.371,-5.15 l -4.223,0.006 1.467,5.156 z m 0.008,3.205 -7.553,0.016 -3.291,-11.561 8.525,-0.015 c 3.221,0 7.094,0.607 8.444,5.343 l 0.025,0.09 C 6.645,-1.221 6.479,0.187 5.666,1.263 4.361,2.998 1.811,3.203 0.008,3.205" /></g><g
           transform="translate(155.9092,90.3765)"
           id="g140"><path
             id="path142"
             style="fill:#141e33;fill-opacity:1;fill-rule:nonzero;stroke:none"
             d="m 0,0 -1.66,-0.543 5.023,-11.823 -7.824,0.014 -4.049,11.248 -7.035,0.016 -3.199,-11.229 -6.86,0.015 9.379,32.945 15.317,-0.034 c 5.015,-0.011 8.545,-1.187 10.211,-3.397 1.287,-1.71 1.5,-4.128 0.635,-7.187 C 8.523,5.072 5.182,1.698 0,0 m 13.031,9.201 c 1.151,4.039 0.758,7.382 -1.168,9.942 -2.326,3.086 -6.621,4.66 -12.763,4.671 l -17.745,0.043 -11.087,-38.949 -0.114,-0.405 13.52,-0.033 3.199,11.231 2.361,-0.005 4.049,-11.249 14.93,-0.029 -5.582,13.143 c 5.265,2.192 8.857,6.21 10.4,11.64" /></g><g
           transform="translate(185.5498,77.0454)"
           id="g144"><path
             id="path146"
             style="fill:#141e33;fill-opacity:1;fill-rule:nonzero;stroke:none"
             d="m 0,0 h -0.125 c -5.729,0.015 -9.998,1.672 -12.344,4.788 -2.234,2.968 -2.664,7.182 -1.24,12.182 3.059,10.721 12.594,17.646 24.293,17.648 l 0.131,-0.002 c 5.734,-0.012 10.006,-1.668 12.357,-4.787 2.229,-2.962 2.66,-7.153 1.246,-12.123 C 21.244,6.952 11.701,0 0,0 m 25.631,31.756 c -2.979,3.955 -8.129,6.054 -14.897,6.065 l -0.148,0.002 c -13.17,0 -23.92,-7.86 -27.389,-20.025 -1.703,-5.969 -1.09,-11.135 1.774,-14.938 2.972,-3.949 8.146,-6.047 14.957,-6.062 H 0 c 13.172,0 23.93,7.883 27.414,20.08 1.69,5.937 1.074,11.085 -1.783,14.878" /></g><g
           transform="translate(199.5439,94.7749)"
           id="g148"><path
             id="path150"
             style="fill:#141e33;fill-opacity:1;fill-rule:nonzero;stroke:none"
             d="m 0,0 c -1.537,-5.373 -6.049,-8.85 -11.498,-8.85 h -0.307 c -2.355,0.047 -4.107,0.75 -5.078,2.041 -1.035,1.372 -1.213,3.516 -0.498,6.029 1.526,5.339 6.033,8.792 11.483,8.792 h 0.087 C -3.34,8.006 -1.506,7.3 -0.5,5.967 0.527,4.6 0.707,2.479 0,0 m -5.793,11.221 h -0.105 c -6.815,0 -12.674,-4.492 -14.579,-11.176 -0.988,-3.467 -0.623,-6.584 1.032,-8.785 1.136,-1.506 3.42,-3.307 7.851,-3.318 h 0.006 l 0.09,0.003 c 6.92,0 12.646,4.406 14.592,11.223 0.98,3.436 0.613,6.535 -1.035,8.726 -1.135,1.51 -3.422,3.312 -7.852,3.327" /></g><g
           transform="translate(77.083,76.7856)"
           id="g152"><path
             id="path154"
             style="fill:#f59412;fill-opacity:1;fill-rule:nonzero;stroke:none"
             d="M 0,0 10.287,36.147 20.479,36.124 10.189,-0.026 Z" /></g><g
           transform="translate(133.8721,112.6899)"
           id="g156"><path
             id="path158"
             style="fill:#f59412;fill-opacity:1;fill-rule:nonzero;stroke:none"
             d="m 0,0 -2.574,-9.036 -11.098,0.023 -7.717,-27.111 -10.189,0.022 7.717,27.111 -11.094,0.025 2.572,9.041 z" /></g><g
           transform="translate(146.4033,104.1968)"
           id="g160"><path
             id="path162"
             style="fill:#f59412;fill-opacity:1;fill-rule:nonzero;stroke:none"
             d="m 0,0 -2.377,-8.36 6.34,-0.015 c 3.394,-0.009 5.994,0.77 6.976,4.221 l 0.016,0.051 c 0.908,3.185 -1.217,4.08 -4.615,4.089 z m 4.066,-27.721 -4.05,11.252 -4.7,0.01 L -7.881,-27.69 -18.07,-27.67 -7.781,8.482 8.752,8.444 C 18.939,8.422 23.404,3.812 21.145,-4.125 l -0.012,-0.053 c -1.578,-5.537 -5.426,-9.296 -10.981,-11.111 l 5.291,-12.451 z" /></g><g
           transform="translate(188.1611,84.3765)"
           id="g164"><path
             id="path166"
             style="fill:#f59412;fill-opacity:1;fill-rule:nonzero;stroke:none"
             d="m 0,0 c 6.426,-0.013 11.414,4.203 13.07,10.008 l 0.014,0.055 c 1.643,5.753 -0.938,9.99 -7.359,10.003 H 5.666 C -0.758,20.085 -5.746,15.867 -7.391,10.111 L -7.404,10.057 C -9.061,4.25 -6.479,0.016 -0.059,-0.006 Z m 8.254,28.941 c 12.902,-0.027 18.271,-7.969 15.152,-18.9 L 23.395,9.988 C 20.258,-0.997 10.373,-8.906 -2.531,-8.877 H -2.59 c -12.898,0.028 -18.271,7.967 -15.137,18.957 l 0.016,0.052 c 3.117,10.934 13.006,18.839 25.906,18.809 z" /></g><g
           transform="translate(70.8232,112.4194)"
           id="g168"><path
             id="path170"
             style="fill:#f59412;fill-opacity:1;fill-rule:nonzero;stroke:none"
             d="M 0,0 -5.663,-19.902 -16.416,0.033 h -0.013 l -0.282,0.58 -21.248,0.38 12.251,-2.348 -0.844,-2.97 -10.208,-0.167 9.672,-1.715 -0.855,-3.003 -7.213,0.029 6.552,-1.079 0.345,-0.063 -7.335,-25.773 9.907,-0.021 5.65,19.853 10.768,-19.888 8.888,-0.019 10.291,36.149 z" /></g></g></g><g
       id="g172"><g
         id="g174"><g
           id="g180"><g
             id="g182"><path
               id="path196"
               style="fill:url(#radialGradient194);stroke:none"
               d="m 204.35,108.01 c -0.005,-0.004 -0.092,0.004 -0.179,0.012 v 0 c -0.105,0.01 -0.209,0.018 -0.168,0.01 v 0 c -0.385,-0.242 -0.733,-0.272 -0.791,-0.343 v 0 c -0.424,-0.375 -3.416,-3.095 -5.012,-4.459 v 0 c -0.707,-0.486 -1.645,-1.15 -1.668,-1.168 v 0 c -2.093,-1.567 -6.68,-3.998 -7.553,-4.455 v 0 c -0.694,0.055 -1.415,-0.121 -2.036,-0.443 v 0 c -1.337,-0.698 -2.169,-2.065 -2.169,-3.572 v 0 c 0,-2.22 1.805,-4.022 4.022,-4.022 v 0 c 1.809,0 3.4,1.223 3.877,2.949 v 0 c 0.319,0.463 0.703,1.015 1.158,1.64 v 0 c 0.758,1.04 2.113,2.233 3.993,3.881 v 0 l 0.117,0.121 c 0.005,0.006 0.774,0.898 2.248,2.071 v 0 c 0.299,0.239 0.542,0.471 0.678,0.641 v 0 l 1.13,1.047 c 1.31,1.219 2.291,2.128 2.976,2.815 v 0 l 3.118,2.486 c 0,0 -2.755,0.831 -3.546,0.831 v 0 c -0.098,0 -0.166,-0.013 -0.195,-0.042" /></g></g></g></g><g
       id="g198"><g
         id="g200"><g
           id="g206"><g
             id="g208"><path
               id="path228"
               style="fill:url(#radialGradient226);stroke:none"
               d="m 207.661,116.177 c -0.246,-1.162 -0.246,-1.716 -0.246,-2.392 v 0 c 0,-0.675 0.063,-0.92 -0.184,-1.164 v 0 c -0.245,-0.246 -1.347,0.672 -1.347,0.672 v 0 c 0,0 -1.967,2.148 -2.58,1.966 v 0 c -0.613,-0.184 -0.86,-0.923 -0.244,-1.535 v 0 c 0.613,-0.614 1.226,-1.349 1.594,-1.839 v 0 c 0.369,-0.493 0.491,-0.8 0.306,-1.289 v 0 c -0.182,-0.493 -0.737,-0.8 -0.737,-0.8 v 0 c 0,0 -0.612,-0.184 -1.472,-0.184 v 0 c -0.859,0 -3.068,0.061 -3.682,0 v 0 c -0.613,-0.061 -1.596,-0.735 -0.613,-0.921 v 0 c 0.98,-0.187 2.33,-0.245 2.885,-0.308 v 0 c 0.551,-0.059 1.779,-0.551 2.025,-0.551 v 0 c 0.245,0 0.245,-0.553 0.245,-0.553 v 0 c 0,0 -0.124,-0.859 0.306,-1.166 v 0 c 0.43,-0.307 0.92,-0.184 1.228,-0.552 v 0 c 0.307,-0.368 0.307,-1.228 0.37,-1.84 v 0 c 0.059,-0.616 0.023,-2.323 0.059,-3.008 v 0 c 0.07,-1.348 0.31,-2.087 0.369,-2.641 v 0 c 0.062,-0.551 0.431,-2.086 0.736,-0.673 v 0 c 0.307,1.411 0.369,2.698 0.245,4.358 v 0 c -0.122,1.658 0.431,3.436 0.491,3.987 v 0 c 0.063,0.551 0.432,1.044 0.614,1.106 v 0 c 0.185,0.061 0.613,0.246 1.903,-0.798 v 0 c 1.29,-1.044 1.78,-1.595 2.517,-2.148 v 0 c 0.738,-0.551 1.29,-1.474 1.412,-0.984 v 0 c 0.122,0.495 -0.8,1.352 -1.596,2.273 v 0 c -0.799,0.92 -1.106,1.227 -1.535,1.964 v 0 c -0.428,0.737 -2.701,0.982 -0.428,1.106 v 0 c 2.269,0.12 3.066,0.183 3.621,0.428 v 0 c 0.551,0.246 0.492,0.553 0.121,0.86 v 0 c -0.367,0.306 -0.43,0.431 -1.533,0.431 v 0 c -1.104,0 -1.536,-0.248 -1.475,-0.063 v 0 c 0.061,0.184 0.371,1.227 1.413,2.085 v 0 c 1.042,0.861 2.33,2.454 2.33,2.454 v 0 c 0,0 1.657,2.825 0.124,1.598 v 0 c -1.535,-1.227 -2.578,-1.289 -3.13,-2.025 v 0 c -0.551,-0.738 -0.614,-1.227 -1.227,-1.474 v 0 c -0.614,-0.245 -1.105,-1.042 -1.35,-0.245 v 0 c -0.247,0.798 -0.676,0.8 -0.554,2.027 v 0 c 0.096,0.944 -0.393,2.219 -0.734,2.219 v 0 c -0.102,0 -0.19,-0.113 -0.247,-0.381" /></g></g></g></g><g
       id="g230"><g
         id="g232"><g
           id="g238"><g
             id="g240"><path
               id="path260"
               style="fill:url(#linearGradient258);stroke:none"
               d="m 202.928,105.904 c 0,0 -4.627,-4.101 -5.722,-4.96 v 0 c -1.096,-0.858 -1.193,-2.86 2.289,0.382 v 0 c 3.48,3.242 5.246,4.816 5.006,5.15 v 0 c -0.109,0.154 -0.228,0.308 -0.428,0.308 v 0 c -0.233,0 -0.577,-0.211 -1.145,-0.88" /></g></g></g></g><g
       id="g262"><g
         clip-path="url(#clipPath268)"
         id="g264"><g
           transform="translate(198.6729,102.0933)"
           id="g270"><path
             id="path272"
             style="fill:#141e33;fill-opacity:1;fill-rule:nonzero;stroke:none"
             d="m 0,0 c -0.629,-0.412 -2.117,-1.469 -2.117,-1.469 -2.383,-1.786 -7.752,-4.576 -7.797,-4.597 -0.002,-0.001 -0.119,-0.053 -0.286,-0.117 -0.117,0.015 -0.233,0.036 -0.355,0.036 -0.474,0 -0.92,-0.117 -1.312,-0.323 -0.914,-0.475 -1.539,-1.428 -1.539,-2.531 0,-1.573 1.277,-2.851 2.851,-2.851 1.374,0 2.519,0.972 2.79,2.264 0.345,0.508 0.776,1.127 1.296,1.843 0.836,1.148 2.235,2.378 4.166,4.072 0,0 0.811,0.956 2.41,2.232 C 1.84,-0.064 0.369,0.243 0,0" /></g><g
           transform="translate(155.874,89.3921)"
           id="g274"><path
             id="path276"
             style="fill:#f2531b;fill-opacity:1;fill-rule:nonzero;stroke:none"
             d="m 0,0 -1.66,-0.515 5.023,-11.235 -7.824,0.015 -4.051,10.689 -7.037,0.013 -3.193,-10.671 -6.862,0.015 3.62,12.805 0.791,2.909 L -0.264,4.01 H 6.619 C 6.619,4.01 3.422,0.951 0,0" /></g><g
           transform="translate(54.7646,93.4175)"
           id="g278"><path
             id="path280"
             style="fill:#f2531b;fill-opacity:1;fill-rule:nonzero;stroke:none"
             d="M 0,0 7.975,-15.709 13.746,-15.764 19.102,0 11.941,-0.024 10.435,-3.153 8.282,-0.024 Z" /></g><g
           transform="translate(41.5947,93.395)"
           id="g282"><path
             id="path284"
             style="fill:#f2531b;fill-opacity:1;fill-rule:nonzero;stroke:none"
             d="M 0,0 H 7.27 L 2.564,-15.738 h -7.16 z" /></g><g
           transform="translate(83.5557,93.395)"
           id="g286"><path
             id="path288"
             style="fill:#f2531b;fill-opacity:1;fill-rule:nonzero;stroke:none"
             d="M 0,0 H 7.268 L 2.564,-15.756 h -7.16 z" /></g><g
           transform="translate(108.8252,93.4058)"
           id="g290"><path
             id="path292"
             style="fill:#f2531b;fill-opacity:1;fill-rule:nonzero;stroke:none"
             d="M 0,0 H 7.254 L 2.582,-15.724 h -7.158 z" /></g><g
           transform="translate(202.6982,93.4126)"
           id="g294"><path
             id="path296"
             style="fill:#f2531b;fill-opacity:1;fill-rule:nonzero;stroke:none"
             d="m 0,0 c -1.945,-6.819 -7.5,-10.69 -14.418,-10.69 h -0.092 -0.006 c -4.429,0.008 -6.713,1.81 -7.851,3.319 0,0 -1.479,1.878 -1.475,5.271 0,1.959 0.01,2.095 0.01,2.095 l -7.145,0.009 c -1.201,-4.964 -0.644,-8.61 1.594,-11.58 2.346,-3.116 6.613,-4.775 12.344,-4.784 h 0.125 c 11.701,0 20.652,5.618 23.723,16.375 z" /></g></g></g></g></svg>